<svg id="visual" viewBox="0 0 320 900" width="320" height="900" xmlns="http://www.w3.org/2000/svg" xmlns:xlink="http://www.w3.org/1999/xlink" version="1.1"><path d="M0 262L29 262L29 244L58 244L58 127L87 127L87 100L116 100L116 145L145 145L145 190L175 190L175 217L204 217L204 181L233 181L233 136L262 136L262 82L291 82L291 199L320 199L320 190L320 0L320 0L291 0L291 0L262 0L262 0L233 0L233 0L204 0L204 0L175 0L175 0L145 0L145 0L116 0L116 0L87 0L87 0L58 0L58 0L29 0L29 0L0 0Z" fill="#fcaf3c"></path><path d="M0 325L29 325L29 406L58 406L58 280L87 280L87 181L116 181L116 280L145 280L145 325L175 325L175 352L204 352L204 244L233 244L233 199L262 199L262 235L291 235L291 361L320 361L320 343L320 188L320 197L291 197L291 80L262 80L262 134L233 134L233 179L204 179L204 215L175 215L175 188L145 188L145 143L116 143L116 98L87 98L87 125L58 125L58 242L29 242L29 260L0 260Z" fill="#fba230"></path><path d="M0 406L29 406L29 460L58 460L58 406L87 406L87 298L116 298L116 424L145 424L145 442L175 442L175 478L204 478L204 397L233 397L233 253L262 253L262 361L291 361L291 442L320 442L320 487L320 341L320 359L291 359L291 233L262 233L262 197L233 197L233 242L204 242L204 350L175 350L175 323L145 323L145 278L116 278L116 179L87 179L87 278L58 278L58 404L29 404L29 323L0 323Z" fill="#fa9424"></path><path d="M0 694L29 694L29 595L58 595L58 550L87 550L87 658L116 658L116 730L145 730L145 685L175 685L175 730L204 730L204 766L233 766L233 568L262 568L262 604L291 604L291 640L320 640L320 631L320 485L320 440L291 440L291 359L262 359L262 251L233 251L233 395L204 395L204 476L175 476L175 440L145 440L145 422L116 422L116 296L87 296L87 404L58 404L58 458L29 458L29 404L0 404Z" fill="#f98619"></path><path d="M0 901L29 901L29 901L58 901L58 901L87 901L87 901L116 901L116 901L145 901L145 901L175 901L175 901L204 901L204 901L233 901L233 901L262 901L262 901L291 901L291 901L320 901L320 901L320 629L320 638L291 638L291 602L262 602L262 566L233 566L233 764L204 764L204 728L175 728L175 683L145 683L145 728L116 728L116 656L87 656L87 548L58 548L58 593L29 593L29 692L0 692Z" fill="#f7770f"></path></svg>